<svg xmlns="http://www.w3.org/2000/svg" width="68" height="68" viewBox="0 0 68 68">
  <g id="icon-network" transform="translate(-387 -792)">
    <circle id="Circle" cx="34" cy="34" r="34" transform="translate(387 792)" fill="#4988ff" opacity="0.08"/>
    <path id="network_1_" data-name="network (1)" d="M28.509,0a3.49,3.49,0,0,0-3.069,5.155l-5.719,5.719a4.624,4.624,0,0,0-5.7,0L9.561,6.411a2.3,2.3,0,0,0,.33-1.175A2.327,2.327,0,1,0,7.564,7.564a2.3,2.3,0,0,0,1.175-.33L13.2,11.7a4.625,4.625,0,0,0,0,5.7L5.832,24.763a3.456,3.456,0,1,0,.727.918l7.464-7.464a4.627,4.627,0,0,0,2.268.942v5.911a3.491,3.491,0,1,0,1.164,0V19.159a4.627,4.627,0,0,0,2.268-.942l4.462,4.462a2.3,2.3,0,0,0-.33,1.175,2.327,2.327,0,1,0,2.327-2.327,2.3,2.3,0,0,0-1.175.33L20.545,17.4a4.625,4.625,0,0,0,0-5.7l5.623-5.623A3.489,3.489,0,1,0,28.509,0Z" transform="translate(405 810)" fill="#367cff"/>
  </g>
</svg>
