<svg xmlns="http://www.w3.org/2000/svg" width="68" height="68" viewBox="0 0 68 68">
  <g id="icon-mobilesecurity" transform="translate(20 13.001)">
    <circle id="Circle" cx="34" cy="34" r="34" transform="translate(-20 -13.001)" fill="#4988ff" opacity="0.08"/>
    <path id="Path_24" data-name="Path 24" d="M126.538,158.457a6.1,6.1,0,1,0,6.1,6.1A6.1,6.1,0,0,0,126.538,158.457Zm3.62,4.949-4.368,4.368a.939.939,0,0,1-1.328,0l-1.669-1.669a.939.939,0,1,1,1.328-1.328l1.005,1.005,3.7-3.7a.939.939,0,0,1,1.328,1.328Zm0,0" transform="translate(-112.913 -143.554)" fill="#367cff"/>
    <path id="Path_25" data-name="Path 25" d="M27.218,8.681V8.657c-.014-.307-.023-.633-.029-.994A3.392,3.392,0,0,0,23.995,4.34,13.16,13.16,0,0,1,15.038.564l-.021-.02a2.048,2.048,0,0,0-2.783,0l-.021.02A13.162,13.162,0,0,1,3.256,4.34,3.391,3.391,0,0,0,.062,7.662c-.005.359-.015.685-.029.994v.058c-.072,3.752-.16,8.421,1.4,12.659A16.114,16.114,0,0,0,5.3,27.4a20.223,20.223,0,0,0,7.565,4.475,2.343,2.343,0,0,0,.31.084,2.29,2.29,0,0,0,.9,0,2.35,2.35,0,0,0,.311-.085,20.237,20.237,0,0,0,7.557-4.477,16.137,16.137,0,0,0,3.866-6.023C27.378,17.118,27.289,12.44,27.218,8.681ZM13.625,23.974A7.975,7.975,0,1,1,21.6,16,7.984,7.984,0,0,1,13.625,23.974Zm0,0" transform="translate(0 5)" fill="#367cff"/>
  </g>
</svg>
