<svg xmlns="http://www.w3.org/2000/svg" width="68" height="68" viewBox="0 0 68 68">
  <g id="icon-learning" transform="translate(8.2 12)">
    <circle id="Circle" cx="34" cy="34" r="34" transform="translate(-8.2 -12)" fill="#4988ff" opacity="0.08"/>
    <path id="XMLID_49_" d="M29.6,29.139v.974a1.545,1.545,0,0,1-1.31,1.53l-.24.885a1.1,1.1,0,0,1-1.063.816H24.606a1.1,1.1,0,0,1-1.063-.816l-.233-.885a1.552,1.552,0,0,1-1.317-1.537v-.974a.937.937,0,0,1,.94-.94h5.729A.947.947,0,0,1,29.6,29.139Zm4.412-13.132a8.173,8.173,0,0,1-2.305,5.7A7.533,7.533,0,0,0,29.69,25.8a1.358,1.358,0,0,1-1.345,1.146h-5.1A1.345,1.345,0,0,1,21.91,25.8a7.616,7.616,0,0,0-2.031-4.1,8.214,8.214,0,1,1,14.134-5.695Zm-7.286-4.974a.927.927,0,0,0-.926-.926,5.934,5.934,0,0,0-5.928,5.928.926.926,0,0,0,1.852,0A4.08,4.08,0,0,1,25.8,11.959.922.922,0,0,0,26.726,11.033ZM25.8,5.1a.927.927,0,0,0,.926-.926V.926a.926.926,0,0,0-1.852,0V4.172A.927.927,0,0,0,25.8,5.1ZM14.9,16a.927.927,0,0,0-.926-.926H10.726a.926.926,0,0,0,0,1.852h3.245A.922.922,0,0,0,14.9,16Zm25.976-.926H37.628a.926.926,0,0,0,0,1.852h3.245a.926.926,0,0,0,0-1.852ZM16.785,23.712l-2.3,2.3a.924.924,0,0,0,1.3,1.31l2.3-2.3a.924.924,0,0,0-1.3-1.31ZM34.164,8.563a.925.925,0,0,0,.652-.268l2.3-2.3a.927.927,0,1,0-1.31-1.31l-2.3,2.3a.923.923,0,0,0,0,1.31A.941.941,0,0,0,34.164,8.563ZM16.785,8.288a.924.924,0,1,0,1.3-1.31l-2.3-2.3a.927.927,0,1,0-1.31,1.31ZM34.815,23.712a.927.927,0,0,0-1.31,1.31l2.3,2.3a.924.924,0,1,0,1.3-1.31Z" transform="translate(0 5)" fill="#367cff"/>
  </g>
</svg>
