<svg xmlns="http://www.w3.org/2000/svg" viewBox="0 0 1495.71 115.78"><defs><style>.cls-1{fill:#fff;}.cls-2{opacity:0.5;}</style></defs><title>LogoIIC</title><g id="Layer_2" data-name="Layer 2"><g id="Layer_1-2" data-name="Layer 1"><path class="cls-1" d="M216.5,41.55l-7.94-12h-5v12h-7.43V3.84h11.42q7,0,10.89,3.41a11.75,11.75,0,0,1,3.87,9.3,15,15,0,0,1-1.46,6.53,10.87,10.87,0,0,1-4.49,4.79l8.76,13.68ZM203.59,22.39h5.27a5.25,5.25,0,0,0,4.41-1.77,6.08,6.08,0,0,0,1.38-3.82,7.23,7.23,0,0,0-1.18-3.92c-.78-1.24-2.3-1.87-4.56-1.87h-5.32Z"/><path class="cls-1" d="M244.72,34.58l3.18,5.33A19.9,19.9,0,0,1,244,41.55a13.6,13.6,0,0,1-3.9.61,14.69,14.69,0,0,1-6.89-1.51,10.22,10.22,0,0,1-4.38-4.25,13,13,0,0,1-1.48-6.28,11.27,11.27,0,0,1,1.71-6,12.29,12.29,0,0,1,4.69-4.38,13.37,13.37,0,0,1,6.51-1.62,11.29,11.29,0,0,1,7.91,2.82,13.65,13.65,0,0,1,4,8l-16.39,5.23a5.6,5.6,0,0,0,4.46,1.9A8.23,8.23,0,0,0,244.72,34.58Zm-8.86-9.27a6.42,6.42,0,0,0-1.43,4.4v.46l9.83-3.33a4.37,4.37,0,0,0-4.56-3.17A4.84,4.84,0,0,0,235.86,25.31Z"/><path class="cls-1" d="M259.53,41a10.66,10.66,0,0,1-4-2.71l3-4q3,2.77,5.59,2.77a4.92,4.92,0,0,0,2.23-.43,1.4,1.4,0,0,0,.84-1.31,1.69,1.69,0,0,0-1-1.56,11,11,0,0,0-2.18-.9c-.8-.24-1.34-.39-1.61-.46A8.76,8.76,0,0,1,258,29.74a6.6,6.6,0,0,1-1.43-4.18,7.13,7.13,0,0,1,.95-3.51,7.2,7.2,0,0,1,2.94-2.81,10.12,10.12,0,0,1,5-1.11,17,17,0,0,1,4.72.57,12.39,12.39,0,0,1,3.74,1.84l-2.72,4.2a9.6,9.6,0,0,0-2.28-1.35,5.86,5.86,0,0,0-2.28-.54,3.58,3.58,0,0,0-2,.51,1.47,1.47,0,0,0-.77,1.23,1.65,1.65,0,0,0,.9,1.61,13.54,13.54,0,0,0,3,1.1l.64.21.69.2c3.52,1.17,5.28,3.28,5.28,6.36A7.48,7.48,0,0,1,273.26,38a7.77,7.77,0,0,1-3.25,2.9A11.74,11.74,0,0,1,264.7,42,13.63,13.63,0,0,1,259.53,41Z"/><path class="cls-1" d="M296,34.58l3.18,5.33a19.9,19.9,0,0,1-3.89,1.64,13.6,13.6,0,0,1-3.9.61,14.69,14.69,0,0,1-6.89-1.51,10.22,10.22,0,0,1-4.38-4.25,13,13,0,0,1-1.48-6.28,11.27,11.27,0,0,1,1.71-6A12.29,12.29,0,0,1,285,19.7a13.37,13.37,0,0,1,6.51-1.62,11.29,11.29,0,0,1,7.91,2.82,13.65,13.65,0,0,1,4,8L287,34.17a5.6,5.6,0,0,0,4.46,1.9A8.23,8.23,0,0,0,296,34.58Zm-8.86-9.27a6.42,6.42,0,0,0-1.43,4.4v.46l9.83-3.33a4.37,4.37,0,0,0-4.56-3.17A4.84,4.84,0,0,0,287.09,25.31Z"/><path class="cls-1" d="M332.74,19.16V41.55h-7.18V38.78a10.05,10.05,0,0,1-7.48,3.38,11.15,11.15,0,0,1-8.06-3q-3.11-3-3.1-8.81a13.37,13.37,0,0,1,1.51-6.48,11.15,11.15,0,0,1,4-4.33A10.08,10.08,0,0,1,317.83,18a10.33,10.33,0,0,1,4.71.9,9.73,9.73,0,0,1,3.08,2.53l.46-2.3Zm-7.18,13.78V27.46a5.21,5.21,0,0,0-2.12-2.61,6.44,6.44,0,0,0-3.56-1,5.35,5.35,0,0,0-4,1.74A6.14,6.14,0,0,0,314.19,30a6.38,6.38,0,0,0,.82,3.2,6,6,0,0,0,2.18,2.28,5.53,5.53,0,0,0,2.94.82A5.66,5.66,0,0,0,325.56,32.94Z"/><path class="cls-1" d="M349.67,21.05a14.06,14.06,0,0,1,3.3-2.22,6.88,6.88,0,0,1,2.67-.8l-.36,7.17a6.36,6.36,0,0,0-.87-.05,6.52,6.52,0,0,0-3.79,1.13,7.44,7.44,0,0,0-2.51,2.89,8,8,0,0,0-.88,3.62v8.76h-7.12V19.16h6.46l.56,5.12A11.26,11.26,0,0,1,349.67,21.05Z"/><path class="cls-1" d="M375.39,41.44a14.24,14.24,0,0,1-4.38.72q-5.85,0-9.25-3.15a11.24,11.24,0,0,1-3.41-8.68A11.69,11.69,0,0,1,360,24.05,11.12,11.12,0,0,1,364.4,20a12.47,12.47,0,0,1,5.84-1.41,13.48,13.48,0,0,1,9.06,3l-3.48,4.61a7.76,7.76,0,0,0-4.92-1.75,5,5,0,0,0-3.81,1.7,6,6,0,0,0-1.57,4.25,6.21,6.21,0,0,0,10,4.71l3.59,4.51A11.65,11.65,0,0,1,375.39,41.44Z"/><path class="cls-1" d="M405.51,20a6.37,6.37,0,0,1,2.18,4.81V41.55h-7.18V27.46q-.15-3.29-3.28-3.28a4.51,4.51,0,0,0-3.94,2.31,10.76,10.76,0,0,0-1.49,5.94v9.12h-7.17V1.13h7V22.69a8.93,8.93,0,0,1,3.41-3.38,10.28,10.28,0,0,1,5.15-1.23A7.71,7.71,0,0,1,405.51,20Z"/><path class="cls-1" d="M203.59,65.32V95.85h17.72V103H196.16V65.32Z"/><path class="cls-1" d="M251.9,80.64V103h-7.18v-2.76a10.05,10.05,0,0,1-7.48,3.38,11.15,11.15,0,0,1-8.06-3q-3.1-3-3.1-8.82a13.42,13.42,0,0,1,1.51-6.48,11.12,11.12,0,0,1,4-4.32A10.08,10.08,0,0,1,237,79.51a10.48,10.48,0,0,1,4.71.89,9.76,9.76,0,0,1,3.08,2.54l.46-2.3Zm-7.18,13.78V88.94a5.19,5.19,0,0,0-2.12-2.62,6.44,6.44,0,0,0-3.56-1,5.36,5.36,0,0,0-4,1.74,6.12,6.12,0,0,0-1.67,4.41,6.38,6.38,0,0,0,.82,3.2A6.13,6.13,0,0,0,236.35,97a5.94,5.94,0,0,0,8.37-2.56Z"/><path class="cls-1" d="M280.3,80.92A10.07,10.07,0,0,1,284.17,85a13.18,13.18,0,0,1,1.44,6.35A12.86,12.86,0,0,1,284,97.82a11.21,11.21,0,0,1-4.25,4.31,11.63,11.63,0,0,1-5.79,1.51,10.41,10.41,0,0,1-7.53-2.87V103h-7.18V62.6h7.12V82.17A11.68,11.68,0,0,1,270,80.25a15.5,15.5,0,0,1,4.92-.74A10.46,10.46,0,0,1,280.3,80.92Zm-5,15.85a6,6,0,0,0,2.18-2.28,6.38,6.38,0,0,0,.82-3.2,6,6,0,0,0-1.74-4.4,5.73,5.73,0,0,0-4.2-1.75,6.92,6.92,0,0,0-3.69,1,5.37,5.37,0,0,0-2.25,2.61v5.48a6.26,6.26,0,0,0,5.94,3.38A5.53,5.53,0,0,0,275.33,96.77Z"/><path class="cls-1" d="M291.11,85.4a11.42,11.42,0,0,1,4.56-4.28,14.05,14.05,0,0,1,6.69-1.56,13.48,13.48,0,0,1,6.58,1.56,10.94,10.94,0,0,1,4.38,4.28,12.21,12.21,0,0,1,1.54,6.15,12.51,12.51,0,0,1-1.54,6.2,10.93,10.93,0,0,1-4.38,4.33,13.69,13.69,0,0,1-6.69,1.56,14.57,14.57,0,0,1-6.63-1.46A10.84,10.84,0,0,1,291.11,98a12.45,12.45,0,0,1-1.61-6.45A11.86,11.86,0,0,1,291.11,85.4ZM298.26,96a4.92,4.92,0,0,0,3.89,1.77,5,5,0,0,0,4-1.74,7.34,7.34,0,0,0,0-8.92,5,5,0,0,0-4-1.74,4.92,4.92,0,0,0-3.89,1.77,7.14,7.14,0,0,0,0,8.86Z"/><path class="cls-1" d="M330.05,82.53a13.91,13.91,0,0,1,3.3-2.23,6.83,6.83,0,0,1,2.67-.79l-.36,7.17a6.36,6.36,0,0,0-.87-.05A6.52,6.52,0,0,0,331,87.76a7.39,7.39,0,0,0-2.52,2.89,8.09,8.09,0,0,0-.87,3.61V103h-7.12V80.64H327l.56,5.12A11.13,11.13,0,0,1,330.05,82.53Z"/><path class="cls-1" d="M364.81,80.64V103h-7.18v-2.76a10.05,10.05,0,0,1-7.48,3.38,11.15,11.15,0,0,1-8.06-3q-3.1-3-3.1-8.82a13.42,13.42,0,0,1,1.51-6.48,11.12,11.12,0,0,1,4-4.32,10.08,10.08,0,0,1,5.38-1.54,10.48,10.48,0,0,1,4.71.89,9.76,9.76,0,0,1,3.08,2.54l.46-2.3Zm-7.18,13.78V88.94a5.19,5.19,0,0,0-2.12-2.62,6.44,6.44,0,0,0-3.56-1,5.36,5.36,0,0,0-4,1.74,6.12,6.12,0,0,0-1.67,4.41,6.38,6.38,0,0,0,.82,3.2A6.13,6.13,0,0,0,349.26,97a5.94,5.94,0,0,0,8.37-2.56Z"/><path class="cls-1" d="M381.46,70.8v9.73h5.43v5.59h-5.43V103h-7.18V86.12H370.8V80.53h3.48V70.8Z"/><path class="cls-1" d="M392.24,85.4a11.36,11.36,0,0,1,4.56-4.28,14,14,0,0,1,6.68-1.56,13.49,13.49,0,0,1,6.59,1.56,11.07,11.07,0,0,1,4.38,4.28A12.31,12.31,0,0,1,416,91.55a12.61,12.61,0,0,1-1.53,6.2,11.06,11.06,0,0,1-4.38,4.33,13.72,13.72,0,0,1-6.69,1.56,14.57,14.57,0,0,1-6.63-1.46A10.84,10.84,0,0,1,392.24,98a12.35,12.35,0,0,1-1.61-6.45A11.76,11.76,0,0,1,392.24,85.4ZM399.39,96a4.92,4.92,0,0,0,3.89,1.77,5,5,0,0,0,4-1.74,7.34,7.34,0,0,0,0-8.92,5,5,0,0,0-4-1.74,4.92,4.92,0,0,0-3.89,1.77,7.14,7.14,0,0,0,0,8.86Z"/><path class="cls-1" d="M431.17,82.53a14.16,14.16,0,0,1,3.31-2.23,6.8,6.8,0,0,1,2.66-.79l-.36,7.17a6.15,6.15,0,0,0-.87-.05,6.54,6.54,0,0,0-3.79,1.13,7.45,7.45,0,0,0-2.51,2.89,8.09,8.09,0,0,0-.87,3.61V103h-7.12V80.64h6.46l.56,5.12A11.09,11.09,0,0,1,431.17,82.53Z"/><path class="cls-1" d="M465.78,80.64l-14.45,33.14h-6.91l5.38-11.93L439.45,80.64h8l5.89,13.21,5.95-13.21Z"/><g class="cls-2"><path class="cls-1" d="M556.27,41.55V5.23h5.12V41.55Z"/><path class="cls-1" d="M574.91,41.55H570.1V16.91h4.71v3.53a8.44,8.44,0,0,1,7.58-4.25c5.89,0,8.81,4.25,8.81,9.73V41.55h-4.81V26.74c0-3.43-1.44-6.2-5.74-6.2-3.79,0-5.74,3-5.74,6.77Z"/><path class="cls-1" d="M600.94,33.61c.31,2.56,2.25,4.61,5.74,4.61,2.71,0,4.2-1.54,4.2-3.28,0-1.54-1.13-2.72-3.18-3.18l-4.2-.92c-3.84-.82-6.15-3.43-6.15-6.91,0-4.2,3.95-7.79,8.76-7.79,6.76,0,8.86,4.4,9.38,6.61l-4.26,1.59a4.78,4.78,0,0,0-5.12-4.1c-2.46,0-4.1,1.59-4.1,3.28,0,1.48.93,2.56,2.82,3l4,.87c4.45,1,6.81,3.69,6.81,7.32s-2.92,7.64-9,7.64c-6.76,0-9.63-4.36-10-7.18Z"/><path class="cls-1" d="M628.5,16.91h5.33v4.35H628.5V34.07c0,2.25.92,3.38,3.43,3.38a9.17,9.17,0,0,0,1.9-.21v4.1a10.36,10.36,0,0,1-3.28.46c-4.2,0-6.87-2.56-6.87-7V21.26H619V16.91h1.33a3.44,3.44,0,0,0,3.79-3.79v-4h4.41Z"/><path class="cls-1" d="M642.59,4.1a3.46,3.46,0,1,1-3.43,3.49A3.45,3.45,0,0,1,642.59,4.1Zm-2.36,37.45V16.91H645V41.55Z"/><path class="cls-1" d="M659.65,16.91H665v4.35h-5.32V34.07c0,2.25.92,3.38,3.43,3.38a9.15,9.15,0,0,0,1.89-.21v4.1a10.34,10.34,0,0,1-3.27.46c-4.2,0-6.87-2.56-6.87-7V21.26h-4.71V16.91h1.33a3.44,3.44,0,0,0,3.79-3.79v-4h4.41Z"/><path class="cls-1" d="M680.34,42.32c-5.73,0-9.22-4.31-9.22-9.89V16.91h4.82v14.8c0,3.38,1.53,6.35,5.58,6.35,3.89,0,5.84-2.56,5.84-6.3V16.91h4.82V37a42.58,42.58,0,0,0,.25,4.56h-4.61a22.46,22.46,0,0,1-.2-3C686.29,41.14,683.21,42.32,680.34,42.32Z"/><path class="cls-1" d="M706.83,16.91h5.33v4.35h-5.33V34.07c0,2.25.92,3.38,3.43,3.38a9.17,9.17,0,0,0,1.9-.21v4.1a10.36,10.36,0,0,1-3.28.46c-4.2,0-6.87-2.56-6.87-7V21.26H697.3V16.91h1.33a3.44,3.44,0,0,0,3.79-3.79v-4h4.41Z"/><path class="cls-1" d="M739.77,34.53a11.18,11.18,0,0,1-11.07,7.79c-6.6,0-12.39-4.82-12.39-13.17,0-7.73,5.58-13,11.78-13,7.58,0,11.83,5.22,11.83,12.91a10.94,10.94,0,0,1-.1,1.53H721.28a7.31,7.31,0,0,0,7.42,7.48,6.71,6.71,0,0,0,6.92-5Zm-4.87-7.84c-.1-3.53-2.4-6.3-6.76-6.3a6.63,6.63,0,0,0-6.71,6.3Z"/><path class="cls-1" d="M782,29.2c0,7.53-5.22,13.12-12.6,13.12s-12.6-5.59-12.6-13.12,5.23-13.06,12.6-13.06S782,21.72,782,29.2Zm-4.91,0c0-5.68-3.59-8.76-7.69-8.76s-7.68,3.08-7.68,8.76S765.33,38,769.43,38,777.12,34.94,777.12,29.2Z"/><path class="cls-1" d="M794.64,21.26V41.55h-5V21.26h-4.56V16.91h4.56V12.76c0-5.48,3.63-8.45,8.09-8.45a6.28,6.28,0,0,1,2.87.51v4.3a5.6,5.6,0,0,0-2.1-.31c-1.69,0-3.89.82-3.89,4.21v3.89h5.94v4.35Z"/><path class="cls-1" d="M819.07,41.55V5.23h5.13V41.55Z"/><path class="cls-1" d="M837.72,41.55h-4.81V16.91h4.71v3.53a8.44,8.44,0,0,1,7.58-4.25c5.89,0,8.81,4.25,8.81,9.73V41.55H849.2V26.74c0-3.43-1.44-6.2-5.74-6.2-3.79,0-5.74,3-5.74,6.77Z"/><path class="cls-1" d="M868.15,21.26V41.55h-5V21.26h-4.56V16.91h4.56V12.76c0-5.48,3.64-8.45,8.1-8.45a6.22,6.22,0,0,1,2.86.51v4.3a5.56,5.56,0,0,0-2.1-.31c-1.69,0-3.89.82-3.89,4.21v3.89h5.94v4.35Z"/><path class="cls-1" d="M901.4,29.2c0,7.53-5.23,13.12-12.6,13.12s-12.6-5.59-12.6-13.12,5.22-13.06,12.6-13.06S901.4,21.72,901.4,29.2Zm-4.92,0c0-5.68-3.59-8.76-7.68-8.76s-7.69,3.08-7.69,8.76S884.7,38,888.8,38,896.48,34.94,896.48,29.2Z"/><path class="cls-1" d="M921.22,21.77a15.26,15.26,0,0,0-2.1-.15c-4,0-6.76,2.15-6.76,7.58V41.55h-4.81V16.91h4.71v4.3a7.72,7.72,0,0,1,7.38-4.71,9.16,9.16,0,0,1,1.58.15Z"/><path class="cls-1" d="M926.35,41.55V16.91H931v3.28a8.49,8.49,0,0,1,7.48-4,7.7,7.7,0,0,1,7.37,4.66,8.86,8.86,0,0,1,8.25-4.66c4.3,0,8.5,2.92,8.5,9.37v16H957.8V26.08c0-3.23-1.59-5.64-5.23-5.64-3.38,0-5.68,2.67-5.68,6.2V41.55h-4.82V26.08c0-3.18-1.53-5.64-5.22-5.64-3.43,0-5.74,2.56-5.74,6.25V41.55Z"/><path class="cls-1" d="M976.19,27.46l6.66-1c1.49-.21,1.9-1,1.9-1.85,0-2.4-1.59-4.4-5.33-4.4a5.23,5.23,0,0,0-5.58,5l-4.61-1.08c.51-4.71,4.76-8,10.09-8,7.38,0,10.24,4.2,10.24,9V37.5a23.46,23.46,0,0,0,.31,4h-4.71a18.22,18.22,0,0,1-.26-3.33,9,9,0,0,1-7.94,4.1c-5,0-8.24-3.49-8.24-7.38C968.72,30.53,971.94,28.08,976.19,27.46ZM984.75,31V29.87L977.22,31c-2.05.31-3.59,1.49-3.59,3.69a3.74,3.74,0,0,0,4,3.59C981.57,38.27,984.75,36.37,984.75,31Z"/><path class="cls-1" d="M1003.5,16.91h5.33v4.35h-5.33V34.07c0,2.25.92,3.38,3.43,3.38a9.17,9.17,0,0,0,1.9-.21v4.1a10.36,10.36,0,0,1-3.28.46c-4.2,0-6.87-2.56-6.87-7V21.26H994V16.91h1.33a3.44,3.44,0,0,0,3.79-3.79v-4h4.41Z"/><path class="cls-1" d="M1017.59,4.1a3.46,3.46,0,1,1-3.43,3.49A3.46,3.46,0,0,1,1017.59,4.1Zm-2.36,37.45V16.91H1020V41.55Z"/><path class="cls-1" d="M1031.06,29.2c0,5.64,3.54,8.66,7.53,8.66a6.72,6.72,0,0,0,6.87-5.07l4.25,1.84a11.33,11.33,0,0,1-11.12,7.69c-7.17,0-12.45-5.64-12.45-13.12,0-7.68,5.38-13.06,12.4-13.06,6.56,0,9.94,4.1,11,7.84l-4.35,1.84a6.46,6.46,0,0,0-6.61-5.22C1034.65,20.6,1031.06,23.46,1031.06,29.2Z"/><path class="cls-1" d="M1057.39,33.61c.31,2.56,2.26,4.61,5.74,4.61,2.71,0,4.2-1.54,4.2-3.28,0-1.54-1.13-2.72-3.18-3.18l-4.2-.92c-3.84-.82-6.14-3.43-6.14-6.91,0-4.2,3.94-7.79,8.76-7.79,6.76,0,8.86,4.4,9.37,6.61l-4.25,1.59a4.78,4.78,0,0,0-5.12-4.1c-2.46,0-4.1,1.59-4.1,3.28,0,1.48.92,2.56,2.82,3l4,.87c4.46,1,6.81,3.69,6.81,7.32s-2.92,7.64-9,7.64c-6.76,0-9.63-4.36-10-7.18Z"/><path class="cls-1" d="M1109.44,36.73c-3,3.33-6.15,5.43-10.19,5.43-6.87,0-10.5-4.61-10.5-9.27s2.56-7.27,6.4-10.14l.51-.41-.66-.72c-1.69-1.79-4.36-4.56-4.36-8.09,0-5.89,4.87-9.07,9.38-9.07,5.48,0,9.63,3.43,9.63,8.86,0,3.59-2.57,6.15-5.13,8l-1.84,1.39,6.76,7,8.09-9v6.61L1112.62,33l8.24,8.51h-6.81Zm-3.38-3.17.15-.21-7.37-7.73L1097,27a6.67,6.67,0,0,0-3.07,5.48,5.22,5.22,0,0,0,5.38,5.07C1102.07,37.55,1104.06,35.76,1106.06,33.56Zm-7.68-15.27,1.12,1.23,2.46-1.84c2.15-1.59,2.72-3,2.72-4.51a4.54,4.54,0,0,0-9.07.05C1095.61,15.27,1097.2,17.06,1098.38,18.29Z"/><path class="cls-1" d="M1133.93,23.36c0-12.14,9-18.9,18-18.9,8.3,0,14.14,4.51,16,11.53l-4.66,1.64c-1.38-5.49-5.38-8.56-11.32-8.56-6.61,0-12.91,4.82-12.91,14.29s6.3,14.35,12.91,14.35c6.2,0,10.09-3.74,11.58-8.71l4.46,1.64c-2,6.81-7.69,11.68-16,11.68C1142.59,42.32,1133.93,35.5,1133.93,23.36Z"/><path class="cls-1" d="M1196.28,29.2c0,7.53-5.23,13.12-12.61,13.12s-12.6-5.59-12.6-13.12,5.23-13.06,12.6-13.06S1196.28,21.72,1196.28,29.2Zm-4.92,0c0-5.68-3.59-8.76-7.69-8.76S1176,23.52,1176,29.2s3.59,8.81,7.68,8.81S1191.36,34.94,1191.36,29.2Z"/><path class="cls-1" d="M1202.43,41.55V16.91H1207v3.28a8.48,8.48,0,0,1,7.47-4,7.7,7.7,0,0,1,7.38,4.66,8.85,8.85,0,0,1,8.25-4.66c4.3,0,8.5,2.92,8.5,9.37v16h-4.76V26.08c0-3.23-1.59-5.64-5.23-5.64-3.38,0-5.68,2.67-5.68,6.2V41.55h-4.82V26.08c0-3.18-1.53-5.64-5.22-5.64-3.43,0-5.74,2.56-5.74,6.25V41.55Z"/><path class="cls-1" d="M1246.33,41.55V16.91h4.61v3.28a8.49,8.49,0,0,1,7.48-4,7.7,7.7,0,0,1,7.37,4.66,8.86,8.86,0,0,1,8.25-4.66c4.3,0,8.5,2.92,8.5,9.37v16h-4.76V26.08c0-3.23-1.59-5.64-5.22-5.64-3.39,0-5.69,2.67-5.69,6.2V41.55h-4.82V26.08c0-3.18-1.53-5.64-5.22-5.64-3.43,0-5.74,2.56-5.74,6.25V41.55Z"/><path class="cls-1" d="M1298.69,42.32c-5.74,0-9.22-4.31-9.22-9.89V16.91h4.81v14.8c0,3.38,1.54,6.35,5.58,6.35s5.84-2.56,5.84-6.3V16.91h4.82V37a42.58,42.58,0,0,0,.25,4.56h-4.6a20.66,20.66,0,0,1-.21-3C1304.63,41.14,1301.55,42.32,1298.69,42.32Z"/><path class="cls-1" d="M1323.53,41.55h-4.81V16.91h4.71v3.53a8.44,8.44,0,0,1,7.58-4.25c5.89,0,8.81,4.25,8.81,9.73V41.55H1335V26.74c0-3.43-1.44-6.2-5.74-6.2-3.79,0-5.74,3-5.74,6.77Z"/><path class="cls-1" d="M1349.87,4.1a3.46,3.46,0,1,1-3.44,3.49A3.46,3.46,0,0,1,1349.87,4.1Zm-2.36,37.45V16.91h4.76V41.55Z"/><path class="cls-1" d="M1363.34,29.2c0,5.64,3.53,8.66,7.53,8.66a6.7,6.7,0,0,0,6.86-5.07l4.25,1.84a11.31,11.31,0,0,1-11.11,7.69c-7.17,0-12.45-5.64-12.45-13.12,0-7.68,5.38-13.06,12.4-13.06,6.55,0,9.93,4.1,11,7.84l-4.36,1.84a6.44,6.44,0,0,0-6.6-5.22C1366.92,20.6,1363.34,23.46,1363.34,29.2Z"/><path class="cls-1" d="M1393.31,27.46l6.66-1c1.48-.21,1.89-1,1.89-1.85,0-2.4-1.59-4.4-5.33-4.4a5.23,5.23,0,0,0-5.58,5l-4.61-1.08c.51-4.71,4.76-8,10.09-8,7.38,0,10.25,4.2,10.25,9V37.5a23.85,23.85,0,0,0,.3,4h-4.71a18.54,18.54,0,0,1-.25-3.33,9,9,0,0,1-7.94,4.1c-5,0-8.25-3.49-8.25-7.38C1385.83,30.53,1389.06,28.08,1393.31,27.46Zm8.55,3.53V29.87L1394.33,31c-2,.31-3.58,1.49-3.58,3.69a3.73,3.73,0,0,0,4,3.59C1398.69,38.27,1401.86,36.37,1401.86,31Z"/><path class="cls-1" d="M1420.61,16.91h5.33v4.35h-5.33V34.07c0,2.25.92,3.38,3.43,3.38a9.17,9.17,0,0,0,1.9-.21v4.1a10.36,10.36,0,0,1-3.28.46c-4.2,0-6.86-2.56-6.86-7V21.26h-4.72V16.91h1.34a3.45,3.45,0,0,0,3.79-3.79v-4h4.4Z"/><path class="cls-1" d="M1434.7,4.1a3.46,3.46,0,1,1-3.43,3.49A3.45,3.45,0,0,1,1434.7,4.1Zm-2.36,37.45V16.91h4.77V41.55Z"/><path class="cls-1" d="M1468.46,29.2c0,7.53-5.23,13.12-12.6,13.12s-12.6-5.59-12.6-13.12,5.22-13.06,12.6-13.06S1468.46,21.72,1468.46,29.2Zm-4.92,0c0-5.68-3.58-8.76-7.68-8.76s-7.69,3.08-7.69,8.76,3.59,8.81,7.69,8.81S1463.54,34.94,1463.54,29.2Z"/><path class="cls-1" d="M1479.42,41.55h-4.81V16.91h4.71v3.53a8.46,8.46,0,0,1,7.58-4.25c5.89,0,8.81,4.25,8.81,9.73V41.55h-4.81V26.74c0-3.43-1.44-6.2-5.74-6.2-3.79,0-5.74,3-5.74,6.77Z"/><path class="cls-1" d="M555.75,90.63V66.71h5V90.47c0,5.54,3,8.66,8.1,8.66s8-3.12,8-8.66V66.71h5V90.63c0,8.55-5.69,13.16-13.06,13.16S555.75,99.18,555.75,90.63Z"/><path class="cls-1" d="M594.64,103h-4.82V78.38h4.72v3.54a8.44,8.44,0,0,1,7.58-4.25c5.89,0,8.81,4.25,8.81,9.73V103h-4.82V88.22c0-3.43-1.43-6.2-5.73-6.2-3.8,0-5.74,3-5.74,6.76Z"/><path class="cls-1" d="M621,65.58a3.46,3.46,0,1,1-3.43,3.48A3.45,3.45,0,0,1,621,65.58ZM618.61,103V78.38h4.77V103Z"/><path class="cls-1" d="M642.84,103H638L628,78.38h5.43l7,19,7.06-19h5.18Z"/><path class="cls-1" d="M678,96a11.18,11.18,0,0,1-11.07,7.78c-6.61,0-12.39-4.81-12.39-13.16,0-7.74,5.58-13,11.78-13,7.58,0,11.83,5.22,11.83,12.9a11.11,11.11,0,0,1-.1,1.54H659.49a7.32,7.32,0,0,0,7.43,7.48,6.71,6.71,0,0,0,6.92-5Zm-4.87-7.84c-.1-3.54-2.41-6.3-6.76-6.3a6.62,6.62,0,0,0-6.71,6.3Z"/><path class="cls-1" d="M698,83.25a15.49,15.49,0,0,0-2.1-.15c-4,0-6.76,2.15-6.76,7.58V103h-4.82V78.38H689v4.31A7.72,7.72,0,0,1,696.38,78a9.42,9.42,0,0,1,1.59.15Z"/><path class="cls-1" d="M705.14,95.08c.31,2.57,2.25,4.61,5.74,4.61,2.71,0,4.2-1.53,4.2-3.27,0-1.54-1.13-2.72-3.18-3.18l-4.2-.92c-3.84-.82-6.15-3.43-6.15-6.92,0-4.2,4-7.78,8.76-7.78,6.76,0,8.86,4.4,9.38,6.6l-4.25,1.59a4.79,4.79,0,0,0-5.13-4.1c-2.46,0-4.1,1.59-4.1,3.28,0,1.49.93,2.56,2.82,3l4,.87c4.45,1,6.81,3.69,6.81,7.33,0,3.48-2.92,7.63-9,7.63-6.77,0-9.63-4.35-10-7.17Z"/><path class="cls-1" d="M728.6,65.58a3.46,3.46,0,1,1-3.43,3.48A3.46,3.46,0,0,1,728.6,65.58ZM726.25,103V78.38H731V103Z"/><path class="cls-1" d="M745.66,78.38H751v4.36h-5.33v12.8c0,2.26.92,3.39,3.43,3.39a9.91,9.91,0,0,0,1.9-.21v4.1a10.68,10.68,0,0,1-3.28.46c-4.2,0-6.86-2.56-6.86-7V82.74h-4.72V78.38h1.34a3.44,3.44,0,0,0,3.79-3.79v-4h4.4Z"/><path class="cls-1" d="M758.52,113.32l6.15-13L754.06,78.38h5.54l7.68,17,7.38-17h5.17l-16,34.94Z"/><path class="cls-1" d="M820.4,90.68c0,7.53-5.22,13.11-12.6,13.11s-12.6-5.58-12.6-13.11,5.23-13.06,12.6-13.06S820.4,83.2,820.4,90.68Zm-4.91,0c0-5.69-3.59-8.76-7.69-8.76s-7.68,3.07-7.68,8.76,3.58,8.81,7.68,8.81S815.49,96.42,815.49,90.68Z"/><path class="cls-1" d="M833,82.74V103h-5V82.74h-4.56V78.38H828V74.24c0-5.49,3.64-8.46,8.09-8.46a6.11,6.11,0,0,1,2.87.52v4.3a5.6,5.6,0,0,0-2.1-.31c-1.69,0-3.89.82-3.89,4.2v3.89H839v4.36Z"/><path class="cls-1" d="M857.44,103V66.71h12.71c9.22,0,17.26,6.3,17.26,18.23S879.27,103,870,103Zm12.45-4.45c6.71,0,12.35-4.51,12.35-13.63S876.7,71.16,870,71.16h-7.53V98.57Z"/><path class="cls-1" d="M915.28,96a11.17,11.17,0,0,1-11.07,7.78c-6.6,0-12.39-4.81-12.39-13.16,0-7.74,5.58-13,11.78-13,7.58,0,11.83,5.22,11.83,12.9a11.11,11.11,0,0,1-.1,1.54H896.79a7.31,7.31,0,0,0,7.42,7.48,6.71,6.71,0,0,0,6.92-5Zm-4.87-7.84c-.1-3.54-2.4-6.3-6.76-6.3a6.63,6.63,0,0,0-6.71,6.3Z"/><path class="cls-1" d="M921.58,103V65.94h4.82V103Z"/><path class="cls-1" d="M939.41,103h-4.82V65.94h4.82V81.25a8.71,8.71,0,0,1,7.48-3.58c5.89,0,8.81,4.25,8.81,9.73V103h-4.82V88.22c0-3.43-1.43-6.2-5.73-6.2-3.69,0-5.64,2.87-5.74,6.51Z"/><path class="cls-1" d="M965.74,65.58a3.46,3.46,0,1,1-3.43,3.48A3.46,3.46,0,0,1,965.74,65.58ZM963.39,103V78.38h4.76V103Z"/><path class="cls-1" d="M1008.31,76.54a7.37,7.37,0,0,0-7.68-6.2c-4.1,0-7,2.67-7,6,0,2.61,1.59,4.61,4.66,5.27l5.43,1.18c6,1.33,9.43,5.12,9.43,10.19,0,5.64-4.82,10.76-12.55,10.76-8.76,0-12.91-5.63-13.58-10.81l4.82-1.53a8.25,8.25,0,0,0,8.71,7.78c5,0,7.47-2.61,7.47-5.79,0-2.61-1.79-4.86-5.42-5.63l-5.18-1.13c-5.17-1.12-8.86-4.5-8.86-9.93,0-5.69,5.28-10.81,12-10.81,8.19,0,11.47,5.07,12.29,9Z"/><path class="cls-1" d="M1042.17,90.68c0,7.53-5.22,13.11-12.6,13.11S1017,98.21,1017,90.68s5.23-13.06,12.6-13.06S1042.17,83.2,1042.17,90.68Zm-4.91,0c0-5.69-3.59-8.76-7.69-8.76s-7.68,3.07-7.68,8.76,3.59,8.81,7.68,8.81S1037.26,96.42,1037.26,90.68Z"/><path class="cls-1" d="M1057,103.79c-5.73,0-9.22-4.3-9.22-9.88V78.38h4.82V93.19c0,3.38,1.53,6.35,5.58,6.35,3.89,0,5.84-2.56,5.84-6.3V78.38h4.82V98.46a42.41,42.41,0,0,0,.25,4.56h-4.61a22.21,22.21,0,0,1-.2-3C1063,102.61,1059.9,103.79,1057,103.79Z"/><path class="cls-1" d="M1083.52,78.38h5.33v4.36h-5.33v12.8c0,2.26.92,3.39,3.43,3.39a9.91,9.91,0,0,0,1.9-.21v4.1a10.68,10.68,0,0,1-3.28.46c-4.2,0-6.87-2.56-6.87-7V82.74H1074V78.38h1.33a3.44,3.44,0,0,0,3.79-3.79v-4h4.41Z"/><path class="cls-1" d="M1100.07,103h-4.82V65.94h4.82V81.25a8.71,8.71,0,0,1,7.47-3.58c5.9,0,8.82,4.25,8.82,9.73V103h-4.82V88.22c0-3.43-1.43-6.2-5.74-6.2-3.68,0-5.63,2.87-5.73,6.51Z"/><path class="cls-1" d="M1135.06,84.84c0-12.14,9-18.9,18-18.9,8.3,0,14.14,4.5,16,11.52l-4.66,1.64c-1.38-5.48-5.38-8.55-11.32-8.55-6.61,0-12.91,4.81-12.91,14.29s6.3,14.34,12.91,14.34c6.2,0,10.09-3.74,11.57-8.71l4.46,1.64c-1.95,6.82-7.68,11.68-16,11.68C1143.71,103.79,1135.06,97,1135.06,84.84Z"/><path class="cls-1" d="M1180.19,88.94l6.66-1c1.48-.2,1.89-1,1.89-1.84,0-2.41-1.58-4.41-5.32-4.41a5.24,5.24,0,0,0-5.59,5l-4.61-1.07c.52-4.72,4.77-8,10.09-8,7.38,0,10.25,4.2,10.25,9V99a22.18,22.18,0,0,0,.31,4h-4.72a18.35,18.35,0,0,1-.25-3.33,9,9,0,0,1-7.94,4.1c-5,0-8.25-3.48-8.25-7.37C1172.71,92,1175.94,89.55,1180.19,88.94Zm8.55,3.53V91.34l-7.53,1.13c-2,.31-3.58,1.49-3.58,3.69a3.74,3.74,0,0,0,4,3.58C1185.57,99.74,1188.74,97.85,1188.74,92.47Z"/><path class="cls-1" d="M1201,103V78.38h4.61v3.28a8.51,8.51,0,0,1,7.48-4,7.7,7.7,0,0,1,7.38,4.66,8.82,8.82,0,0,1,8.24-4.66c4.31,0,8.51,2.92,8.51,9.37v16h-4.77V87.55c0-3.22-1.59-5.63-5.22-5.63-3.38,0-5.69,2.66-5.69,6.2V103h-4.81V87.55c0-3.17-1.54-5.63-5.23-5.63-3.43,0-5.74,2.56-5.74,6.25V103Z"/><path class="cls-1" d="M1245,112.76V78.38h4.66v3.85a9.08,9.08,0,0,1,8.24-4.41c7.38,0,11.32,5.69,11.32,12.86s-4.25,13-11.47,13a9.15,9.15,0,0,1-8-4v13.07Zm12-30.69c-4.4,0-7.32,3.69-7.32,8.61s2.92,8.71,7.32,8.71,7.28-3.64,7.28-8.71S1261.49,82.07,1257,82.07Z"/><path class="cls-1" d="M1284,103.79c-5.73,0-9.22-4.3-9.22-9.88V78.38h4.82V93.19c0,3.38,1.53,6.35,5.58,6.35,3.89,0,5.84-2.56,5.84-6.3V78.38h4.82V98.46a42.41,42.41,0,0,0,.25,4.56h-4.61a22.21,22.21,0,0,1-.2-3C1290,102.61,1286.9,103.79,1284,103.79Z"/><path class="cls-1" d="M1306.11,95.08c.31,2.57,2.26,4.61,5.74,4.61,2.72,0,4.2-1.53,4.2-3.27,0-1.54-1.13-2.72-3.17-3.18l-4.21-.92c-3.84-.82-6.14-3.43-6.14-6.92,0-4.2,3.94-7.78,8.76-7.78,6.76,0,8.86,4.4,9.37,6.6l-4.25,1.59a4.78,4.78,0,0,0-5.12-4.1c-2.46,0-4.1,1.59-4.1,3.28,0,1.49.92,2.56,2.82,3l4,.87c4.46,1,6.81,3.69,6.81,7.33,0,3.48-2.91,7.63-9,7.63-6.76,0-9.63-4.35-10-7.17Z"/></g><g class="cls-2"><rect class="cls-1" x="505.87" width="1.5" height="115.78"/></g><path class="cls-1" d="M216.5,41.55l-7.94-12h-5v12h-7.43V3.84h11.42q7,0,10.89,3.41a11.75,11.75,0,0,1,3.87,9.3,15,15,0,0,1-1.46,6.53,10.87,10.87,0,0,1-4.49,4.79l8.76,13.68ZM203.59,22.39h5.27a5.25,5.25,0,0,0,4.41-1.77,6.08,6.08,0,0,0,1.38-3.82,7.23,7.23,0,0,0-1.18-3.92c-.78-1.24-2.3-1.87-4.56-1.87h-5.32Z"/><path class="cls-1" d="M244.72,34.58l3.18,5.33A19.9,19.9,0,0,1,244,41.55a13.6,13.6,0,0,1-3.9.61,14.69,14.69,0,0,1-6.89-1.51,10.22,10.22,0,0,1-4.38-4.25,13,13,0,0,1-1.48-6.28,11.27,11.27,0,0,1,1.71-6,12.29,12.29,0,0,1,4.69-4.38,13.37,13.37,0,0,1,6.51-1.62,11.29,11.29,0,0,1,7.91,2.82,13.65,13.65,0,0,1,4,8l-16.39,5.23a5.6,5.6,0,0,0,4.46,1.9A8.23,8.23,0,0,0,244.72,34.58Zm-8.86-9.27a6.42,6.42,0,0,0-1.43,4.4v.46l9.83-3.33a4.37,4.37,0,0,0-4.56-3.17A4.84,4.84,0,0,0,235.86,25.31Z"/><path class="cls-1" d="M259.53,41a10.66,10.66,0,0,1-4-2.71l3-4q3,2.77,5.59,2.77a4.92,4.92,0,0,0,2.23-.43,1.4,1.4,0,0,0,.84-1.31,1.69,1.69,0,0,0-1-1.56,11,11,0,0,0-2.18-.9c-.8-.24-1.34-.39-1.61-.46A8.76,8.76,0,0,1,258,29.74a6.6,6.6,0,0,1-1.43-4.18,7.13,7.13,0,0,1,.95-3.51,7.2,7.2,0,0,1,2.94-2.81,10.12,10.12,0,0,1,5-1.11,17,17,0,0,1,4.72.57,12.39,12.39,0,0,1,3.74,1.84l-2.72,4.2a9.6,9.6,0,0,0-2.28-1.35,5.86,5.86,0,0,0-2.28-.54,3.58,3.58,0,0,0-2,.51,1.47,1.47,0,0,0-.77,1.23,1.65,1.65,0,0,0,.9,1.61,13.54,13.54,0,0,0,3,1.1l.64.21.69.2c3.52,1.17,5.28,3.28,5.28,6.36A7.48,7.48,0,0,1,273.26,38a7.77,7.77,0,0,1-3.25,2.9A11.74,11.74,0,0,1,264.7,42,13.63,13.63,0,0,1,259.53,41Z"/><path class="cls-1" d="M296,34.58l3.18,5.33a19.9,19.9,0,0,1-3.89,1.64,13.6,13.6,0,0,1-3.9.61,14.69,14.69,0,0,1-6.89-1.51,10.22,10.22,0,0,1-4.38-4.25,13,13,0,0,1-1.48-6.28,11.27,11.27,0,0,1,1.71-6A12.29,12.29,0,0,1,285,19.7a13.37,13.37,0,0,1,6.51-1.62,11.29,11.29,0,0,1,7.91,2.82,13.65,13.65,0,0,1,4,8L287,34.17a5.6,5.6,0,0,0,4.46,1.9A8.23,8.23,0,0,0,296,34.58Zm-8.86-9.27a6.42,6.42,0,0,0-1.43,4.4v.46l9.83-3.33a4.37,4.37,0,0,0-4.56-3.17A4.84,4.84,0,0,0,287.09,25.31Z"/><path class="cls-1" d="M332.74,19.16V41.55h-7.18V38.78a10.05,10.05,0,0,1-7.48,3.38,11.15,11.15,0,0,1-8.06-3q-3.11-3-3.1-8.81a13.37,13.37,0,0,1,1.51-6.48,11.15,11.15,0,0,1,4-4.33A10.08,10.08,0,0,1,317.83,18a10.33,10.33,0,0,1,4.71.9,9.73,9.73,0,0,1,3.08,2.53l.46-2.3Zm-7.18,13.78V27.46a5.21,5.21,0,0,0-2.12-2.61,6.44,6.44,0,0,0-3.56-1,5.35,5.35,0,0,0-4,1.74A6.14,6.14,0,0,0,314.19,30a6.38,6.38,0,0,0,.82,3.2,6,6,0,0,0,2.18,2.28,5.53,5.53,0,0,0,2.94.82A5.66,5.66,0,0,0,325.56,32.94Z"/><path class="cls-1" d="M349.67,21.05a14.06,14.06,0,0,1,3.3-2.22,6.88,6.88,0,0,1,2.67-.8l-.36,7.17a6.36,6.36,0,0,0-.87-.05,6.52,6.52,0,0,0-3.79,1.13,7.44,7.44,0,0,0-2.51,2.89,8,8,0,0,0-.88,3.62v8.76h-7.12V19.16h6.46l.56,5.12A11.26,11.26,0,0,1,349.67,21.05Z"/><path class="cls-1" d="M375.39,41.44a14.24,14.24,0,0,1-4.38.72q-5.85,0-9.25-3.15a11.24,11.24,0,0,1-3.41-8.68A11.69,11.69,0,0,1,360,24.05,11.12,11.12,0,0,1,364.4,20a12.47,12.47,0,0,1,5.84-1.41,13.48,13.48,0,0,1,9.06,3l-3.48,4.61a7.76,7.76,0,0,0-4.92-1.75,5,5,0,0,0-3.81,1.7,6,6,0,0,0-1.57,4.25,6.21,6.21,0,0,0,10,4.71l3.59,4.51A11.65,11.65,0,0,1,375.39,41.44Z"/><path class="cls-1" d="M405.51,20a6.37,6.37,0,0,1,2.18,4.81V41.55h-7.18V27.46q-.15-3.29-3.28-3.28a4.51,4.51,0,0,0-3.94,2.31,10.76,10.76,0,0,0-1.49,5.94v9.12h-7.17V1.13h7V22.69a8.93,8.93,0,0,1,3.41-3.38,10.28,10.28,0,0,1,5.15-1.23A7.71,7.71,0,0,1,405.51,20Z"/><path class="cls-1" d="M203.59,65.32V95.85h17.72V103H196.16V65.32Z"/><path class="cls-1" d="M251.9,80.64V103h-7.18v-2.76a10.05,10.05,0,0,1-7.48,3.38,11.15,11.15,0,0,1-8.06-3q-3.1-3-3.1-8.82a13.42,13.42,0,0,1,1.51-6.48,11.12,11.12,0,0,1,4-4.32A10.08,10.08,0,0,1,237,79.51a10.48,10.48,0,0,1,4.71.89,9.76,9.76,0,0,1,3.08,2.54l.46-2.3Zm-7.18,13.78V88.94a5.19,5.19,0,0,0-2.12-2.62,6.44,6.44,0,0,0-3.56-1,5.36,5.36,0,0,0-4,1.74,6.12,6.12,0,0,0-1.67,4.41,6.38,6.38,0,0,0,.82,3.2A6.13,6.13,0,0,0,236.35,97a5.94,5.94,0,0,0,8.37-2.56Z"/><path class="cls-1" d="M280.3,80.92A10.07,10.07,0,0,1,284.17,85a13.18,13.18,0,0,1,1.44,6.35A12.86,12.86,0,0,1,284,97.82a11.21,11.21,0,0,1-4.25,4.31,11.63,11.63,0,0,1-5.79,1.51,10.41,10.41,0,0,1-7.53-2.87V103h-7.18V62.6h7.12V82.17A11.68,11.68,0,0,1,270,80.25a15.5,15.5,0,0,1,4.92-.74A10.46,10.46,0,0,1,280.3,80.92Zm-5,15.85a6,6,0,0,0,2.18-2.28,6.38,6.38,0,0,0,.82-3.2,6,6,0,0,0-1.74-4.4,5.73,5.73,0,0,0-4.2-1.75,6.92,6.92,0,0,0-3.69,1,5.37,5.37,0,0,0-2.25,2.61v5.48a6.26,6.26,0,0,0,5.94,3.38A5.53,5.53,0,0,0,275.33,96.77Z"/><path class="cls-1" d="M291.11,85.4a11.42,11.42,0,0,1,4.56-4.28,14.05,14.05,0,0,1,6.69-1.56,13.48,13.48,0,0,1,6.58,1.56,10.94,10.94,0,0,1,4.38,4.28,12.21,12.21,0,0,1,1.54,6.15,12.51,12.51,0,0,1-1.54,6.2,10.93,10.93,0,0,1-4.38,4.33,13.69,13.69,0,0,1-6.69,1.56,14.57,14.57,0,0,1-6.63-1.46A10.84,10.84,0,0,1,291.11,98a12.45,12.45,0,0,1-1.61-6.45A11.86,11.86,0,0,1,291.11,85.4ZM298.26,96a4.92,4.92,0,0,0,3.89,1.77,5,5,0,0,0,4-1.74,7.34,7.34,0,0,0,0-8.92,5,5,0,0,0-4-1.74,4.92,4.92,0,0,0-3.89,1.77,7.14,7.14,0,0,0,0,8.86Z"/><path class="cls-1" d="M330.05,82.53a13.91,13.91,0,0,1,3.3-2.23,6.83,6.83,0,0,1,2.67-.79l-.36,7.17a6.36,6.36,0,0,0-.87-.05A6.52,6.52,0,0,0,331,87.76a7.39,7.39,0,0,0-2.52,2.89,8.09,8.09,0,0,0-.87,3.61V103h-7.12V80.64H327l.56,5.12A11.13,11.13,0,0,1,330.05,82.53Z"/><path class="cls-1" d="M364.81,80.64V103h-7.18v-2.76a10.05,10.05,0,0,1-7.48,3.38,11.15,11.15,0,0,1-8.06-3q-3.1-3-3.1-8.82a13.42,13.42,0,0,1,1.51-6.48,11.12,11.12,0,0,1,4-4.32,10.08,10.08,0,0,1,5.38-1.54,10.48,10.48,0,0,1,4.71.89,9.76,9.76,0,0,1,3.08,2.54l.46-2.3Zm-7.18,13.78V88.94a5.19,5.19,0,0,0-2.12-2.62,6.44,6.44,0,0,0-3.56-1,5.36,5.36,0,0,0-4,1.74,6.12,6.12,0,0,0-1.67,4.41,6.38,6.38,0,0,0,.82,3.2A6.13,6.13,0,0,0,349.26,97a5.94,5.94,0,0,0,8.37-2.56Z"/><path class="cls-1" d="M381.46,70.8v9.73h5.43v5.59h-5.43V103h-7.18V86.12H370.8V80.53h3.48V70.8Z"/><path class="cls-1" d="M392.24,85.4a11.36,11.36,0,0,1,4.56-4.28,14,14,0,0,1,6.68-1.56,13.49,13.49,0,0,1,6.59,1.56,11.07,11.07,0,0,1,4.38,4.28A12.31,12.31,0,0,1,416,91.55a12.61,12.61,0,0,1-1.53,6.2,11.06,11.06,0,0,1-4.38,4.33,13.72,13.72,0,0,1-6.69,1.56,14.57,14.57,0,0,1-6.63-1.46A10.84,10.84,0,0,1,392.24,98a12.35,12.35,0,0,1-1.61-6.45A11.76,11.76,0,0,1,392.24,85.4ZM399.39,96a4.92,4.92,0,0,0,3.89,1.77,5,5,0,0,0,4-1.74,7.34,7.34,0,0,0,0-8.92,5,5,0,0,0-4-1.74,4.92,4.92,0,0,0-3.89,1.77,7.14,7.14,0,0,0,0,8.86Z"/><path class="cls-1" d="M431.17,82.53a14.16,14.16,0,0,1,3.31-2.23,6.8,6.8,0,0,1,2.66-.79l-.36,7.17a6.15,6.15,0,0,0-.87-.05,6.54,6.54,0,0,0-3.79,1.13,7.45,7.45,0,0,0-2.51,2.89,8.09,8.09,0,0,0-.87,3.61V103h-7.12V80.64h6.46l.56,5.12A11.09,11.09,0,0,1,431.17,82.53Z"/><path class="cls-1" d="M465.78,80.64l-14.45,33.14h-6.91l5.38-11.93L439.45,80.64h8l5.89,13.21,5.95-13.21Z"/><g class="cls-2"><path class="cls-1" d="M556.27,41.55V5.23h5.12V41.55Z"/><path class="cls-1" d="M574.91,41.55H570.1V16.91h4.71v3.53a8.44,8.44,0,0,1,7.58-4.25c5.89,0,8.81,4.25,8.81,9.73V41.55h-4.81V26.74c0-3.43-1.44-6.2-5.74-6.2-3.79,0-5.74,3-5.74,6.77Z"/><path class="cls-1" d="M600.94,33.61c.31,2.56,2.25,4.61,5.74,4.61,2.71,0,4.2-1.54,4.2-3.28,0-1.54-1.13-2.72-3.18-3.18l-4.2-.92c-3.84-.82-6.15-3.43-6.15-6.91,0-4.2,3.95-7.79,8.76-7.79,6.76,0,8.86,4.4,9.38,6.61l-4.26,1.59a4.78,4.78,0,0,0-5.12-4.1c-2.46,0-4.1,1.59-4.1,3.28,0,1.48.93,2.56,2.82,3l4,.87c4.45,1,6.81,3.69,6.81,7.32s-2.92,7.64-9,7.64c-6.76,0-9.63-4.36-10-7.18Z"/><path class="cls-1" d="M628.5,16.91h5.33v4.35H628.5V34.07c0,2.25.92,3.38,3.43,3.38a9.17,9.17,0,0,0,1.9-.21v4.1a10.36,10.36,0,0,1-3.28.46c-4.2,0-6.87-2.56-6.87-7V21.26H619V16.91h1.33a3.44,3.44,0,0,0,3.79-3.79v-4h4.41Z"/><path class="cls-1" d="M642.59,4.1a3.46,3.46,0,1,1-3.43,3.49A3.45,3.45,0,0,1,642.59,4.1Zm-2.36,37.45V16.91H645V41.55Z"/><path class="cls-1" d="M659.65,16.91H665v4.35h-5.32V34.07c0,2.25.92,3.38,3.43,3.38a9.15,9.15,0,0,0,1.89-.21v4.1a10.34,10.34,0,0,1-3.27.46c-4.2,0-6.87-2.56-6.87-7V21.26h-4.71V16.91h1.33a3.44,3.44,0,0,0,3.79-3.79v-4h4.41Z"/><path class="cls-1" d="M680.34,42.32c-5.73,0-9.22-4.31-9.22-9.89V16.91h4.82v14.8c0,3.38,1.53,6.35,5.58,6.35,3.89,0,5.84-2.56,5.84-6.3V16.91h4.82V37a42.58,42.58,0,0,0,.25,4.56h-4.61a22.46,22.46,0,0,1-.2-3C686.29,41.14,683.21,42.32,680.34,42.32Z"/><path class="cls-1" d="M706.83,16.91h5.33v4.35h-5.33V34.07c0,2.25.92,3.38,3.43,3.38a9.17,9.17,0,0,0,1.9-.21v4.1a10.36,10.36,0,0,1-3.28.46c-4.2,0-6.87-2.56-6.87-7V21.26H697.3V16.91h1.33a3.44,3.44,0,0,0,3.79-3.79v-4h4.41Z"/><path class="cls-1" d="M739.77,34.53a11.18,11.18,0,0,1-11.07,7.79c-6.6,0-12.39-4.82-12.39-13.17,0-7.73,5.58-13,11.78-13,7.58,0,11.83,5.22,11.83,12.91a10.94,10.94,0,0,1-.1,1.53H721.28a7.31,7.31,0,0,0,7.42,7.48,6.71,6.71,0,0,0,6.92-5Zm-4.87-7.84c-.1-3.53-2.4-6.3-6.76-6.3a6.63,6.63,0,0,0-6.71,6.3Z"/><path class="cls-1" d="M782,29.2c0,7.53-5.22,13.12-12.6,13.12s-12.6-5.59-12.6-13.12,5.23-13.06,12.6-13.06S782,21.72,782,29.2Zm-4.91,0c0-5.68-3.59-8.76-7.69-8.76s-7.68,3.08-7.68,8.76S765.33,38,769.43,38,777.12,34.94,777.12,29.2Z"/><path class="cls-1" d="M794.64,21.26V41.55h-5V21.26h-4.56V16.91h4.56V12.76c0-5.48,3.63-8.45,8.09-8.45a6.28,6.28,0,0,1,2.87.51v4.3a5.6,5.6,0,0,0-2.1-.31c-1.69,0-3.89.82-3.89,4.21v3.89h5.94v4.35Z"/><path class="cls-1" d="M819.07,41.55V5.23h5.13V41.55Z"/><path class="cls-1" d="M837.72,41.55h-4.81V16.91h4.71v3.53a8.44,8.44,0,0,1,7.58-4.25c5.89,0,8.81,4.25,8.81,9.73V41.55H849.2V26.74c0-3.43-1.44-6.2-5.74-6.2-3.79,0-5.74,3-5.74,6.77Z"/><path class="cls-1" d="M868.15,21.26V41.55h-5V21.26h-4.56V16.91h4.56V12.76c0-5.48,3.64-8.45,8.1-8.45a6.22,6.22,0,0,1,2.86.51v4.3a5.56,5.56,0,0,0-2.1-.31c-1.69,0-3.89.82-3.89,4.21v3.89h5.94v4.35Z"/><path class="cls-1" d="M901.4,29.2c0,7.53-5.23,13.12-12.6,13.12s-12.6-5.59-12.6-13.12,5.22-13.06,12.6-13.06S901.4,21.72,901.4,29.2Zm-4.92,0c0-5.68-3.59-8.76-7.68-8.76s-7.69,3.08-7.69,8.76S884.7,38,888.8,38,896.48,34.94,896.48,29.2Z"/><path class="cls-1" d="M921.22,21.77a15.26,15.26,0,0,0-2.1-.15c-4,0-6.76,2.15-6.76,7.58V41.55h-4.81V16.91h4.71v4.3a7.72,7.72,0,0,1,7.38-4.71,9.16,9.16,0,0,1,1.58.15Z"/><path class="cls-1" d="M926.35,41.55V16.91H931v3.28a8.49,8.49,0,0,1,7.48-4,7.7,7.7,0,0,1,7.37,4.66,8.86,8.86,0,0,1,8.25-4.66c4.3,0,8.5,2.92,8.5,9.37v16H957.8V26.08c0-3.23-1.59-5.64-5.23-5.64-3.38,0-5.68,2.67-5.68,6.2V41.55h-4.82V26.08c0-3.18-1.53-5.64-5.22-5.64-3.43,0-5.74,2.56-5.74,6.25V41.55Z"/><path class="cls-1" d="M976.19,27.46l6.66-1c1.49-.21,1.9-1,1.9-1.85,0-2.4-1.59-4.4-5.33-4.4a5.23,5.23,0,0,0-5.58,5l-4.61-1.08c.51-4.71,4.76-8,10.09-8,7.38,0,10.24,4.2,10.24,9V37.5a23.46,23.46,0,0,0,.31,4h-4.71a18.22,18.22,0,0,1-.26-3.33,9,9,0,0,1-7.94,4.1c-5,0-8.24-3.49-8.24-7.38C968.72,30.53,971.94,28.08,976.19,27.46ZM984.75,31V29.87L977.22,31c-2.05.31-3.59,1.49-3.59,3.69a3.74,3.74,0,0,0,4,3.59C981.57,38.27,984.75,36.37,984.75,31Z"/><path class="cls-1" d="M1003.5,16.91h5.33v4.35h-5.33V34.07c0,2.25.92,3.38,3.43,3.38a9.17,9.17,0,0,0,1.9-.21v4.1a10.36,10.36,0,0,1-3.28.46c-4.2,0-6.87-2.56-6.87-7V21.26H994V16.91h1.33a3.44,3.44,0,0,0,3.79-3.79v-4h4.41Z"/><path class="cls-1" d="M1017.59,4.1a3.46,3.46,0,1,1-3.43,3.49A3.46,3.46,0,0,1,1017.59,4.1Zm-2.36,37.45V16.91H1020V41.55Z"/><path class="cls-1" d="M1031.06,29.2c0,5.64,3.54,8.66,7.53,8.66a6.72,6.72,0,0,0,6.87-5.07l4.25,1.84a11.33,11.33,0,0,1-11.12,7.69c-7.17,0-12.45-5.64-12.45-13.12,0-7.68,5.38-13.06,12.4-13.06,6.56,0,9.94,4.1,11,7.84l-4.35,1.84a6.46,6.46,0,0,0-6.61-5.22C1034.65,20.6,1031.06,23.46,1031.06,29.2Z"/><path class="cls-1" d="M1057.39,33.61c.31,2.56,2.26,4.61,5.74,4.61,2.71,0,4.2-1.54,4.2-3.28,0-1.54-1.13-2.72-3.18-3.18l-4.2-.92c-3.84-.82-6.14-3.43-6.14-6.91,0-4.2,3.94-7.79,8.76-7.79,6.76,0,8.86,4.4,9.37,6.61l-4.25,1.59a4.78,4.78,0,0,0-5.12-4.1c-2.46,0-4.1,1.59-4.1,3.28,0,1.48.92,2.56,2.82,3l4,.87c4.46,1,6.81,3.69,6.81,7.32s-2.92,7.64-9,7.64c-6.76,0-9.63-4.36-10-7.18Z"/><path class="cls-1" d="M1109.44,36.73c-3,3.33-6.15,5.43-10.19,5.43-6.87,0-10.5-4.61-10.5-9.27s2.56-7.27,6.4-10.14l.51-.41-.66-.72c-1.69-1.79-4.36-4.56-4.36-8.09,0-5.89,4.87-9.07,9.38-9.07,5.48,0,9.63,3.43,9.63,8.86,0,3.59-2.57,6.15-5.13,8l-1.84,1.39,6.76,7,8.09-9v6.61L1112.62,33l8.24,8.51h-6.81Zm-3.38-3.17.15-.21-7.37-7.73L1097,27a6.67,6.67,0,0,0-3.07,5.48,5.22,5.22,0,0,0,5.38,5.07C1102.07,37.55,1104.06,35.76,1106.06,33.56Zm-7.68-15.27,1.12,1.23,2.46-1.84c2.15-1.59,2.72-3,2.72-4.51a4.54,4.54,0,0,0-9.07.05C1095.61,15.27,1097.2,17.06,1098.38,18.29Z"/><path class="cls-1" d="M1133.93,23.36c0-12.14,9-18.9,18-18.9,8.3,0,14.14,4.51,16,11.53l-4.66,1.64c-1.38-5.49-5.38-8.56-11.32-8.56-6.61,0-12.91,4.82-12.91,14.29s6.3,14.35,12.91,14.35c6.2,0,10.09-3.74,11.58-8.71l4.46,1.64c-2,6.81-7.69,11.68-16,11.68C1142.59,42.32,1133.93,35.5,1133.93,23.36Z"/><path class="cls-1" d="M1196.28,29.2c0,7.53-5.23,13.12-12.61,13.12s-12.6-5.59-12.6-13.12,5.23-13.06,12.6-13.06S1196.28,21.72,1196.28,29.2Zm-4.92,0c0-5.68-3.59-8.76-7.69-8.76S1176,23.52,1176,29.2s3.59,8.81,7.68,8.81S1191.36,34.94,1191.36,29.2Z"/><path class="cls-1" d="M1202.43,41.55V16.91H1207v3.28a8.48,8.48,0,0,1,7.47-4,7.7,7.7,0,0,1,7.38,4.66,8.85,8.85,0,0,1,8.25-4.66c4.3,0,8.5,2.92,8.5,9.37v16h-4.76V26.08c0-3.23-1.59-5.64-5.23-5.64-3.38,0-5.68,2.67-5.68,6.2V41.55h-4.82V26.08c0-3.18-1.53-5.64-5.22-5.64-3.43,0-5.74,2.56-5.74,6.25V41.55Z"/><path class="cls-1" d="M1246.33,41.55V16.91h4.61v3.28a8.49,8.49,0,0,1,7.48-4,7.7,7.7,0,0,1,7.37,4.66,8.86,8.86,0,0,1,8.25-4.66c4.3,0,8.5,2.92,8.5,9.37v16h-4.76V26.08c0-3.23-1.59-5.64-5.22-5.64-3.39,0-5.69,2.67-5.69,6.2V41.55h-4.82V26.08c0-3.18-1.53-5.64-5.22-5.64-3.43,0-5.74,2.56-5.74,6.25V41.55Z"/><path class="cls-1" d="M1298.69,42.32c-5.74,0-9.22-4.31-9.22-9.89V16.91h4.81v14.8c0,3.38,1.54,6.35,5.58,6.35s5.84-2.56,5.84-6.3V16.91h4.82V37a42.58,42.58,0,0,0,.25,4.56h-4.6a20.66,20.66,0,0,1-.21-3C1304.63,41.14,1301.55,42.32,1298.69,42.32Z"/><path class="cls-1" d="M1323.53,41.55h-4.81V16.91h4.71v3.53a8.44,8.44,0,0,1,7.58-4.25c5.89,0,8.81,4.25,8.81,9.73V41.55H1335V26.74c0-3.43-1.44-6.2-5.74-6.2-3.79,0-5.74,3-5.74,6.77Z"/><path class="cls-1" d="M1349.87,4.1a3.46,3.46,0,1,1-3.44,3.49A3.46,3.46,0,0,1,1349.87,4.1Zm-2.36,37.45V16.91h4.76V41.55Z"/><path class="cls-1" d="M1363.34,29.2c0,5.64,3.53,8.66,7.53,8.66a6.7,6.7,0,0,0,6.86-5.07l4.25,1.84a11.31,11.31,0,0,1-11.11,7.69c-7.17,0-12.45-5.64-12.45-13.12,0-7.68,5.38-13.06,12.4-13.06,6.55,0,9.93,4.1,11,7.84l-4.36,1.84a6.44,6.44,0,0,0-6.6-5.22C1366.92,20.6,1363.34,23.46,1363.34,29.2Z"/><path class="cls-1" d="M1393.31,27.46l6.66-1c1.48-.21,1.89-1,1.89-1.85,0-2.4-1.59-4.4-5.33-4.4a5.23,5.23,0,0,0-5.58,5l-4.61-1.08c.51-4.71,4.76-8,10.09-8,7.38,0,10.25,4.2,10.25,9V37.5a23.85,23.85,0,0,0,.3,4h-4.71a18.54,18.54,0,0,1-.25-3.33,9,9,0,0,1-7.94,4.1c-5,0-8.25-3.49-8.25-7.38C1385.83,30.53,1389.06,28.08,1393.31,27.46Zm8.55,3.53V29.87L1394.33,31c-2,.31-3.58,1.49-3.58,3.69a3.73,3.73,0,0,0,4,3.59C1398.69,38.27,1401.86,36.37,1401.86,31Z"/><path class="cls-1" d="M1420.61,16.91h5.33v4.35h-5.33V34.07c0,2.25.92,3.38,3.43,3.38a9.17,9.17,0,0,0,1.9-.21v4.1a10.36,10.36,0,0,1-3.28.46c-4.2,0-6.86-2.56-6.86-7V21.26h-4.72V16.91h1.34a3.45,3.45,0,0,0,3.79-3.79v-4h4.4Z"/><path class="cls-1" d="M1434.7,4.1a3.46,3.46,0,1,1-3.43,3.49A3.45,3.45,0,0,1,1434.7,4.1Zm-2.36,37.45V16.91h4.77V41.55Z"/><path class="cls-1" d="M1468.46,29.2c0,7.53-5.23,13.12-12.6,13.12s-12.6-5.59-12.6-13.12,5.22-13.06,12.6-13.06S1468.46,21.72,1468.46,29.2Zm-4.92,0c0-5.68-3.58-8.76-7.68-8.76s-7.69,3.08-7.69,8.76,3.59,8.81,7.69,8.81S1463.54,34.94,1463.54,29.2Z"/><path class="cls-1" d="M1479.42,41.55h-4.81V16.91h4.71v3.53a8.46,8.46,0,0,1,7.58-4.25c5.89,0,8.81,4.25,8.81,9.73V41.55h-4.81V26.74c0-3.43-1.44-6.2-5.74-6.2-3.79,0-5.74,3-5.74,6.77Z"/><path class="cls-1" d="M555.75,90.63V66.71h5V90.47c0,5.54,3,8.66,8.1,8.66s8-3.12,8-8.66V66.71h5V90.63c0,8.55-5.69,13.16-13.06,13.16S555.75,99.18,555.75,90.63Z"/><path class="cls-1" d="M594.64,103h-4.82V78.38h4.72v3.54a8.44,8.44,0,0,1,7.58-4.25c5.89,0,8.81,4.25,8.81,9.73V103h-4.82V88.22c0-3.43-1.43-6.2-5.73-6.2-3.8,0-5.74,3-5.74,6.76Z"/><path class="cls-1" d="M621,65.58a3.46,3.46,0,1,1-3.43,3.48A3.45,3.45,0,0,1,621,65.58ZM618.61,103V78.38h4.77V103Z"/><path class="cls-1" d="M642.84,103H638L628,78.38h5.43l7,19,7.06-19h5.18Z"/><path class="cls-1" d="M678,96a11.18,11.18,0,0,1-11.07,7.78c-6.61,0-12.39-4.81-12.39-13.16,0-7.74,5.58-13,11.78-13,7.58,0,11.83,5.22,11.83,12.9a11.11,11.11,0,0,1-.1,1.54H659.49a7.32,7.32,0,0,0,7.43,7.48,6.71,6.71,0,0,0,6.92-5Zm-4.87-7.84c-.1-3.54-2.41-6.3-6.76-6.3a6.62,6.62,0,0,0-6.71,6.3Z"/><path class="cls-1" d="M698,83.25a15.49,15.49,0,0,0-2.1-.15c-4,0-6.76,2.15-6.76,7.58V103h-4.82V78.38H689v4.31A7.72,7.72,0,0,1,696.38,78a9.42,9.42,0,0,1,1.59.15Z"/><path class="cls-1" d="M705.14,95.08c.31,2.57,2.25,4.61,5.74,4.61,2.71,0,4.2-1.53,4.2-3.27,0-1.54-1.13-2.72-3.18-3.18l-4.2-.92c-3.84-.82-6.15-3.43-6.15-6.92,0-4.2,4-7.78,8.76-7.78,6.76,0,8.86,4.4,9.38,6.6l-4.25,1.59a4.79,4.79,0,0,0-5.13-4.1c-2.46,0-4.1,1.59-4.1,3.28,0,1.49.93,2.56,2.82,3l4,.87c4.45,1,6.81,3.69,6.81,7.33,0,3.48-2.92,7.63-9,7.63-6.77,0-9.63-4.35-10-7.17Z"/><path class="cls-1" d="M728.6,65.58a3.46,3.46,0,1,1-3.43,3.48A3.46,3.46,0,0,1,728.6,65.58ZM726.25,103V78.38H731V103Z"/><path class="cls-1" d="M745.66,78.38H751v4.36h-5.33v12.8c0,2.26.92,3.39,3.43,3.39a9.91,9.91,0,0,0,1.9-.21v4.1a10.68,10.68,0,0,1-3.28.46c-4.2,0-6.86-2.56-6.86-7V82.74h-4.72V78.38h1.34a3.44,3.44,0,0,0,3.79-3.79v-4h4.4Z"/><path class="cls-1" d="M758.52,113.32l6.15-13L754.06,78.38h5.54l7.68,17,7.38-17h5.17l-16,34.94Z"/><path class="cls-1" d="M820.4,90.68c0,7.53-5.22,13.11-12.6,13.11s-12.6-5.58-12.6-13.11,5.23-13.06,12.6-13.06S820.4,83.2,820.4,90.68Zm-4.91,0c0-5.69-3.59-8.76-7.69-8.76s-7.68,3.07-7.68,8.76,3.58,8.81,7.68,8.81S815.49,96.42,815.49,90.68Z"/><path class="cls-1" d="M833,82.74V103h-5V82.74h-4.56V78.38H828V74.24c0-5.49,3.64-8.46,8.09-8.46a6.11,6.11,0,0,1,2.87.52v4.3a5.6,5.6,0,0,0-2.1-.31c-1.69,0-3.89.82-3.89,4.2v3.89H839v4.36Z"/><path class="cls-1" d="M857.44,103V66.71h12.71c9.22,0,17.26,6.3,17.26,18.23S879.27,103,870,103Zm12.45-4.45c6.71,0,12.35-4.51,12.35-13.63S876.7,71.16,870,71.16h-7.53V98.57Z"/><path class="cls-1" d="M915.28,96a11.17,11.17,0,0,1-11.07,7.78c-6.6,0-12.39-4.81-12.39-13.16,0-7.74,5.58-13,11.78-13,7.58,0,11.83,5.22,11.83,12.9a11.11,11.11,0,0,1-.1,1.54H896.79a7.31,7.31,0,0,0,7.42,7.48,6.71,6.71,0,0,0,6.92-5Zm-4.87-7.84c-.1-3.54-2.4-6.3-6.76-6.3a6.63,6.63,0,0,0-6.71,6.3Z"/><path class="cls-1" d="M921.58,103V65.94h4.82V103Z"/><path class="cls-1" d="M939.41,103h-4.82V65.94h4.82V81.25a8.71,8.71,0,0,1,7.48-3.58c5.89,0,8.81,4.25,8.81,9.73V103h-4.82V88.22c0-3.43-1.43-6.2-5.73-6.2-3.69,0-5.64,2.87-5.74,6.51Z"/><path class="cls-1" d="M965.74,65.58a3.46,3.46,0,1,1-3.43,3.48A3.46,3.46,0,0,1,965.74,65.58ZM963.39,103V78.38h4.76V103Z"/><path class="cls-1" d="M1008.31,76.54a7.37,7.37,0,0,0-7.68-6.2c-4.1,0-7,2.67-7,6,0,2.61,1.59,4.61,4.66,5.27l5.43,1.18c6,1.33,9.43,5.12,9.43,10.19,0,5.64-4.82,10.76-12.55,10.76-8.76,0-12.91-5.63-13.58-10.81l4.82-1.53a8.25,8.25,0,0,0,8.71,7.78c5,0,7.47-2.61,7.47-5.79,0-2.61-1.79-4.86-5.42-5.63l-5.18-1.13c-5.17-1.12-8.86-4.5-8.86-9.93,0-5.69,5.28-10.81,12-10.81,8.19,0,11.47,5.07,12.29,9Z"/><path class="cls-1" d="M1042.17,90.68c0,7.53-5.22,13.11-12.6,13.11S1017,98.21,1017,90.68s5.23-13.06,12.6-13.06S1042.17,83.2,1042.17,90.68Zm-4.91,0c0-5.69-3.59-8.76-7.69-8.76s-7.68,3.07-7.68,8.76,3.59,8.81,7.68,8.81S1037.26,96.42,1037.26,90.68Z"/><path class="cls-1" d="M1057,103.79c-5.73,0-9.22-4.3-9.22-9.88V78.38h4.82V93.19c0,3.38,1.53,6.35,5.58,6.35,3.89,0,5.84-2.56,5.84-6.3V78.38h4.82V98.46a42.41,42.41,0,0,0,.25,4.56h-4.61a22.21,22.21,0,0,1-.2-3C1063,102.61,1059.9,103.79,1057,103.79Z"/><path class="cls-1" d="M1083.52,78.38h5.33v4.36h-5.33v12.8c0,2.26.92,3.39,3.43,3.39a9.91,9.91,0,0,0,1.9-.21v4.1a10.68,10.68,0,0,1-3.28.46c-4.2,0-6.87-2.56-6.87-7V82.74H1074V78.38h1.33a3.44,3.44,0,0,0,3.79-3.79v-4h4.41Z"/><path class="cls-1" d="M1100.07,103h-4.82V65.94h4.82V81.25a8.71,8.71,0,0,1,7.47-3.58c5.9,0,8.82,4.25,8.82,9.73V103h-4.82V88.22c0-3.43-1.43-6.2-5.74-6.2-3.68,0-5.63,2.87-5.73,6.51Z"/><path class="cls-1" d="M1135.06,84.84c0-12.14,9-18.9,18-18.9,8.3,0,14.14,4.5,16,11.52l-4.66,1.64c-1.38-5.48-5.38-8.55-11.32-8.55-6.61,0-12.91,4.81-12.91,14.29s6.3,14.34,12.91,14.34c6.2,0,10.09-3.74,11.57-8.71l4.46,1.64c-1.95,6.82-7.68,11.68-16,11.68C1143.71,103.79,1135.06,97,1135.06,84.84Z"/><path class="cls-1" d="M1180.19,88.94l6.66-1c1.48-.2,1.89-1,1.89-1.84,0-2.41-1.58-4.41-5.32-4.41a5.24,5.24,0,0,0-5.59,5l-4.61-1.07c.52-4.72,4.77-8,10.09-8,7.38,0,10.25,4.2,10.25,9V99a22.18,22.18,0,0,0,.31,4h-4.72a18.35,18.35,0,0,1-.25-3.33,9,9,0,0,1-7.94,4.1c-5,0-8.25-3.48-8.25-7.37C1172.71,92,1175.94,89.55,1180.19,88.94Zm8.55,3.53V91.34l-7.53,1.13c-2,.31-3.58,1.49-3.58,3.69a3.74,3.74,0,0,0,4,3.58C1185.57,99.74,1188.74,97.85,1188.74,92.47Z"/><path class="cls-1" d="M1201,103V78.38h4.61v3.28a8.51,8.51,0,0,1,7.48-4,7.7,7.7,0,0,1,7.38,4.66,8.82,8.82,0,0,1,8.24-4.66c4.31,0,8.51,2.92,8.51,9.37v16h-4.77V87.55c0-3.22-1.59-5.63-5.22-5.63-3.38,0-5.69,2.66-5.69,6.2V103h-4.81V87.55c0-3.17-1.54-5.63-5.23-5.63-3.43,0-5.74,2.56-5.74,6.25V103Z"/><path class="cls-1" d="M1245,112.76V78.38h4.66v3.85a9.08,9.08,0,0,1,8.24-4.41c7.38,0,11.32,5.69,11.32,12.86s-4.25,13-11.47,13a9.15,9.15,0,0,1-8-4v13.07Zm12-30.69c-4.4,0-7.32,3.69-7.32,8.61s2.92,8.71,7.32,8.71,7.28-3.64,7.28-8.71S1261.49,82.07,1257,82.07Z"/><path class="cls-1" d="M1284,103.79c-5.73,0-9.22-4.3-9.22-9.88V78.38h4.82V93.19c0,3.38,1.53,6.35,5.58,6.35,3.89,0,5.84-2.56,5.84-6.3V78.38h4.82V98.46a42.41,42.41,0,0,0,.25,4.56h-4.61a22.21,22.21,0,0,1-.2-3C1290,102.61,1286.9,103.79,1284,103.79Z"/><path class="cls-1" d="M1306.11,95.08c.31,2.57,2.26,4.61,5.74,4.61,2.72,0,4.2-1.53,4.2-3.27,0-1.54-1.13-2.72-3.17-3.18l-4.21-.92c-3.84-.82-6.14-3.43-6.14-6.92,0-4.2,3.94-7.78,8.76-7.78,6.76,0,8.86,4.4,9.37,6.6l-4.25,1.59a4.78,4.78,0,0,0-5.12-4.1c-2.46,0-4.1,1.59-4.1,3.28,0,1.49.92,2.56,2.82,3l4,.87c4.46,1,6.81,3.69,6.81,7.33,0,3.48-2.91,7.63-9,7.63-6.76,0-9.63-4.35-10-7.17Z"/></g><g class="cls-2"><rect class="cls-1" x="505.87" width="1.5" height="115.78"/></g><path class="cls-1" d="M20.3,19.34v86H0v-76Z"/><path class="cls-1" d="M56.2,2.34v103H35.9v-93Z"/><path class="cls-1" d="M143.62,103.28A52.32,52.32,0,0,1,125,106.5q-16.11,0-28-7A47.32,47.32,0,0,1,78.8,80.67a54.38,54.38,0,0,1-6.3-26A59.46,59.46,0,0,1,78.8,27,46.51,46.51,0,0,1,96.44,8q11.34-6.79,26.18-6.79A57.4,57.4,0,0,1,140,3.74,60.6,60.6,0,0,1,154,10l-8,19.18q-11.07-8.4-22.68-8.4a27,27,0,0,0-14.7,4.34A31.31,31.31,0,0,0,97.7,37a34.19,34.19,0,0,0-4.06,16.59A38.18,38.18,0,0,0,97.42,71,28.07,28.07,0,0,0,108.2,82.7a31.19,31.19,0,0,0,16.38,4.2,35.84,35.84,0,0,0,13.58-2.45,29.91,29.91,0,0,0,9.52-5.81l8.4,18.2Q152.15,100.07,143.62,103.28Z"/></g></g></svg>